<?xml version="1.0" standalone="no"?>
<svg viewBox="0 0 200 200" xmlns="http://www.w3.org/2000/svg">
  <path fill="#F2F4F8" d="M35.2,-59.9C45.6,-48.1,54.1,-38.3,58.7,-27.1C63.3,-15.9,64,-3.3,65,11.4C66.1,26,67.4,42.8,61.1,56.7C54.8,70.6,41,81.7,26.2,83.5C11.3,85.3,-4.7,77.8,-20.9,72.4C-37.1,67.1,-53.5,63.8,-66.1,54.4C-78.7,45,-87.5,29.4,-86.1,14.6C-84.7,-0.1,-73.1,-14.1,-64.2,-27.6C-55.3,-41,-49.1,-53.9,-38.9,-65.8C-28.6,-77.7,-14.3,-88.6,-1,-87.2C12.4,-85.7,24.8,-71.8,35.2,-59.9Z" transform="translate(100 100)" />
</svg>
